<svg xmlns="http://www.w3.org/2000/svg" version="1.1" xmlns:xlink="http://www.w3.org/1999/xlink" xmlns:svgjs="http://svgjs.dev/svgjs" viewBox="0 0 800 800"><g stroke-width="2" stroke="hsl(230, 55%, 40%)" fill="none" stroke-linecap="round"><path d="M371.17 108.5C373.16 94.64 391.72 93.8 402.97 107.04Q410.61 115.41 418.64 123.89 426.93 132.47 435.37 141.16 443.81 149.97 452.13 158.9 460.18 167.94 467.86 177.1 475.03 186.37 481.6 195.75 487.48 205.24 492.6 214.83 496.92 224.52 500.42 234.3 503.12 244.16 505.04 254.1 506.24 264.11 506.8 274.17 506.83 284.28 506.45 294.43 505.79 304.6 505.01 314.79 504.25 324.97 503.68 335.14 503.44 345.29 503.67 355.39 504.52 365.45 506.1 375.43 508.49 385.34 511.76 395.16 515.97 404.88 521.11 414.48 527.18 423.96 534.13 433.3 541.88 442.49 550.34 451.53 559.37 460.41 568.85 469.12 578.6 477.65 588.46 486.01 598.25 494.18 607.79 502.16 616.92 509.96 625.46 517.57 633.29 525.01 640.27 532.25 650.79 546.15 658.17 559.56 660.48 572.25 660.15 584.58 656.78 596.45 652.6 608.12 649.02 619.66 646.94 631.23 647.2 637.07 648.44 642.98C652.13 651.62 644.46 670.5 631.6 679.07Q615.75 690.47 599.9 701.7 584.05 711.6 568.2 719.15 552.35 723.58 536.5 724.44 520.65 721.63 504.8 715.45 488.94 706.53 473.09 695.78 457.24 684.31 441.39 673.3 425.54 663.87 409.69 656.99 393.84 653.37 377.99 653.38 362.14 657.02 346.29 663.92 330.44 673.36 314.59 684.38 298.74 695.85 282.89 706.59 267.04 715.5 251.19 721.66 235.34 724.45 219.49 723.57 203.64 719.12 187.79 711.55 171.93 701.64 156.08 690.41 140.23 679.01 124.38 668.6C111.53 661.64 103.01 644.26 109.09 634.77Q118.48 622.13 128.55 609.82 139.57 597.91 150.96 586.13 162.48 574.38 173.76 562.54 184.12 550.4 193.66 537.99 201.55 524.99 208.39 511.57 213.64 497.37 218.16 482.66 222.01 467.08 225.88 450.95 228.01 442.59 230.37 434.05 233.02 425.34 236.02 416.47 239.42 407.45 243.26 398.28 247.56 388.97 252.33 379.53 257.58 369.98 263.27 360.32 269.37 350.56 275.83 340.72 282.59 330.8 289.58 320.83 296.7 310.8 303.88 300.75 311.01 290.67 317.99 280.58 324.75 270.49 331.18 260.42 337.21 250.37 342.77 240.36 347.81 230.4 352.27 220.49 356.15 210.65 359.43 200.89 362.14 191.2 364.3 181.6 365.97 172.1 367.21 162.69 368.11 153.39 368.77 144.2 369.29 135.11 369.79 126.13 370.77 112.88 371.17 108.5" stroke-dasharray="9 9" transform="rotate(0, 400, 400)" opacity="0.05"></path><path d="M376.01 118.77C377.18 105.45 395.19 104.62 406.92 117.33Q414.66 125.37 422.62 133.5 430.68 141.74 438.74 150.08 446.67 158.54 454.36 167.1 461.69 175.77 468.56 184.54 474.89 193.43 480.59 202.42 485.61 211.52 489.9 220.71 493.44 230 496.25 239.38 498.33 248.84 499.74 258.38 500.53 267.99 500.8 277.65 500.64 287.37 500.17 297.14 499.52 306.93 498.81 316.74 498.19 326.57 497.78 336.39 497.73 346.21 498.15 355.99 499.17 365.75 500.86 375.45 503.31 385.1 506.59 394.67 510.71 404.16 515.69 413.56 521.52 422.86 528.16 432.04 535.53 441.09 543.56 450.02 552.14 458.8 561.13 467.43 570.41 475.91 579.83 484.22 589.23 492.37 598.45 500.35 607.34 508.16 615.76 515.8 623.58 523.26 630.67 530.54 641.82 544.52 650.16 558 653.73 570.73 654.71 583.04 652.34 594.78 648.8 606.25 643.11 625.69 641.42 639.49C643.17 647.5 633.4 666.28 621.05 674.96Q605.83 685.84 590.6 695.94 575.38 704.3 560.16 710.13 544.94 712.87 529.72 712.27 514.49 708.38 499.27 701.57 484.05 692.49 468.83 682 453.61 671.1 438.39 660.81 423.16 652.12 407.94 645.86 392.72 642.61 377.5 642.69 362.27 646.08 347.05 652.47 331.83 661.25 316.61 671.59 301.39 682.5 286.16 692.94 270.94 701.94 255.72 708.63 240.5 712.37 225.28 712.82 210.05 709.92 194.83 703.97 179.61 695.51 164.39 685.35 149.16 674.46 133.94 663.87C121.59 656.2 113.9 638.56 120.17 629.97Q129.77 618.39 139.99 607 150.95 595.77 162.12 584.55 173.2 573.17 183.91 561.61 193.57 549.62 202.38 537.29 209.58 524.32 215.78 510.91 220.54 496.71 224.65 482.02 228.23 466.49 231.87 450.47 233.9 442.17 236.14 433.73 238.67 425.13 241.52 416.39 244.76 407.52 248.4 398.52 252.49 389.4 257.01 380.17 261.99 370.84 267.38 361.42 273.18 351.92 279.33 342.36 285.79 332.74 292.48 323.07 299.33 313.37 306.27 303.65 313.22 293.92 320.07 284.19 326.76 274.47 333.19 264.77 339.29 255.1 344.99 245.47 350.23 235.89 354.96 226.37 359.16 216.91 362.8 207.53 365.89 198.23 368.43 189.01 370.46 179.88 372.03 170.85 373.2 161.91 374.04 153.08 375.55 127.27 376.01 118.77" stroke-dasharray="10 9" transform="rotate(4.04, 400, 400)" opacity="0.09"></path><path d="M381.29 129.05C381.94 116.25 399.42 115.43 411.29 127.63Q426.62 143.13 441.82 159.01 456.07 175.3 468.65 192 478.97 209.1 486.67 226.6 491.68 244.46 494.19 262.65 494.69 281.12 493.89 299.8 492.66 318.64 491.96 337.56 492.69 356.47 495.65 375.31 501.41 393.97 510.27 412.38 522.19 430.45 536.8 448.12 553.44 465.3 571.22 481.94 589.09 498 605.97 513.43 620.86 528.22 632.93 542.36 641.66 555.86 646.86 568.74 648.7 581.04 647.72 592.83 644.8 604.17 641.02 615.15 637.57 625.87 635.67 636.43C635.85 643.99 624.29 662.39 612.42 670.8Q597.78 680.78 583.14 689.51 568.5 696.22 553.86 700.34 539.22 701.5 524.59 699.59 509.95 694.79 495.31 687.52 480.67 678.4 466.03 668.25 451.39 657.95 436.75 648.39 422.11 640.43 407.48 634.75 392.84 631.85 378.2 631.99 363.56 635.15 348.92 641.06 334.28 649.19 319.64 658.85 305 669.18 290.37 679.27 275.73 688.25 261.09 695.33 246.45 699.88 231.81 701.52 217.17 700.09 202.53 695.72 187.89 688.8 173.25 679.93 158.61 669.88 143.98 659.54C132.1 651.56 125.19 633.92 131.67 626.04Q141.36 615.26 151.72 604.56 162.5 593.83 173.37 582.96 183.99 571.85 193.99 560.4 203.06 548.53 210.98 536.16 217.65 523.26 223.09 509.76 227.48 495.64 231.13 480.91 234.43 465.55 237.87 449.59 241.92 433.06 247.04 416.02 253.57 398.51 261.72 380.6 271.52 362.36 282.85 343.88 295.37 325.23 308.63 306.49 322.04 287.75 335 269.08 346.92 250.55 357.28 232.22 365.74 214.16 372.12 196.41 376.49 179 379.13 161.97 380.9 137.18 381.29 129.05" stroke-dasharray="10 4" transform="rotate(8.08, 400, 400)" opacity="0.13"></path><path d="M386.74 139.31C387.21 127.06 404.16 126.25 415.84 137.91Q430.44 152.74 444.45 167.94 457.19 183.5 468.08 199.45 476.74 215.79 482.95 232.49 486.76 249.54 488.45 266.91 488.52 284.56 487.64 302.44 486.6 320.49 486.22 338.65 487.29 356.85 490.48 375.02 496.25 393.08 504.85 410.95 516.22 428.56 530.06 445.85 545.79 462.74 562.65 479.17 579.74 495.09 596.11 510.47 610.87 525.26 623.26 539.45 632.72 553.03 638.98 566.01 642.08 578.42 642.37 590.28 640.47 601.65 637.25 612.58 633.71 623.16 630.92 633.45C629.94 640.74 617.01 658.52 605.58 666.32Q591.48 675.09 577.39 682.29 563.29 687.32 549.2 689.79 535.1 689.49 521.01 686.45 506.91 680.92 492.82 673.33 478.72 664.31 464.63 654.57 450.53 644.89 436.44 636.07 422.34 628.8 408.25 623.68 394.15 621.11 380.06 621.3 365.96 624.23 351.87 629.68 337.77 637.2 323.68 646.18 309.58 655.91 295.49 665.6 281.39 674.47 267.3 681.81 253.2 687.02 239.11 689.69 225.01 689.61 210.92 686.78 196.82 681.42 182.73 673.97 168.63 665.03 154.54 655.32C143.11 647.41 136.97 630.02 143.6 622.67Q153.4 612.48 163.7 602.23 174.21 591.82 184.64 581.15 194.66 570.16 203.94 558.75 212.26 546.89 219.44 534.51 225.43 521.57 230.31 508.07 234.25 493.98 237.55 479.31 240.61 464.08 243.85 448.32 247.7 432.06 252.56 415.35 258.73 398.26 266.42 380.83 275.67 363.15 286.37 345.28 298.25 327.29 310.93 309.27 323.9 291.27 336.62 273.36 348.56 255.61 359.21 238.07 368.2 220.79 375.3 203.8 380.47 187.15 383.86 170.84 386.26 147.1 386.74 139.31" stroke-dasharray="8 8" transform="rotate(12.12, 400, 400)" opacity="0.16"></path><path d="M392.15 149.58C392.72 137.86 409.14 137.07 420.31 148.2Q433.87 162.36 446.48 176.86 457.6 191.71 466.83 206.91 473.9 222.47 478.76 238.38 481.54 254.62 482.56 271.17 482.31 288 481.43 305.06 480.61 322.3 480.57 339.68 481.96 357.13 485.35 374.6 491.11 392 499.42 409.29 510.26 426.39 523.33 443.23 538.17 459.76 554.11 475.91 570.39 491.63 586.2 506.87 600.72 521.61 613.28 535.81 623.32 549.45 630.53 562.53 634.82 575.05 636.38 587.03 635.64 598.5 633.25 609.49 630.02 620.06 626.85 630.26C625.13 637.42 611.29 654.34 600.28 661.24Q586.7 668.6 573.11 674.17 559.53 677.53 545.95 678.45 532.37 676.86 518.79 672.87 505.21 666.78 491.63 659.03 478.05 650.2 464.47 640.93 450.89 631.91 437.3 623.81 423.72 617.22 410.14 612.62 396.56 610.36 382.98 610.6 369.4 613.32 355.82 618.33 342.24 625.24 328.66 633.57 315.08 642.68 301.5 651.92 287.92 660.59 274.34 668.07 260.75 673.79 247.17 677.35 233.59 678.47 220.01 677.08 206.43 673.27 192.85 667.33 179.27 659.7 165.69 650.93C154.68 643.43 149.23 626.56 155.96 619.57Q165.76 609.76 175.87 599.78 186.01 589.53 195.9 578.94 205.23 567.97 213.77 556.55 221.31 544.65 227.76 532.24 233.1 519.29 237.43 505.8 240.95 491.77 243.95 477.22 246.78 462.17 249.82 446.66 253.47 430.72 258.08 414.41 263.91 397.77 271.14 380.88 279.84 363.79 289.91 346.57 301.14 329.28 313.2 311.98 325.67 294.74 338.08 277.61 349.92 260.65 360.75 243.9 370.18 227.4 377.94 211.19 383.9 195.28 388.1 179.71 391.44 157.02 392.15 149.58" stroke-dasharray="3 6" transform="rotate(16.16, 400, 400)" opacity="0.20"></path><path d="M397.27 159.85C398.18 148.65 414.05 147.87 424.45 158.5Q436.72 172 447.78 185.8 457.25 199.92 464.86 214.38 470.48 229.17 474.14 244.29 476.04 259.72 476.53 275.45 476.09 291.44 475.28 307.67 474.72 324.09 475 340.67 476.7 357.34 480.25 374.07 485.97 390.78 494 407.43 504.3 423.95 516.63 440.29 530.58 456.38 545.61 472.18 561.06 487.62 576.24 502.67 590.44 517.29 603.04 531.43 613.51 545.09 621.52 558.23 626.89 570.85 629.69 582.95 630.18 594.55 628.82 605.66 626.23 616.31 623.16 626.55C621.09 633.69 606.83 649.56 596.21 655.37Q583.12 661.17 570.04 665.09 556.95 666.87 543.86 666.38 530.77 663.68 517.69 658.92 504.6 652.44 491.51 644.67 478.42 636.13 465.33 627.39 452.25 619.05 439.16 611.65 426.07 605.71 412.98 601.61 399.9 599.63 386.81 599.91 373.72 602.43 360.64 607.01 347.55 613.35 334.46 621.03 321.37 629.52 308.29 638.26 295.2 646.67 282.11 654.17 269.02 660.26 255.94 664.54 242.85 666.71 229.76 666.64 216.68 664.32 203.59 659.91 190.5 653.71 177.41 646.13C166.8 639.32 161.96 623.19 168.71 616.41Q178.39 606.82 188.18 596.94 197.82 586.74 207.07 576.16 215.66 565.15 223.42 553.69 230.19 541.74 235.92 529.3 240.64 516.36 244.46 502.93 247.59 489.01 250.31 474.63 252.93 459.82 255.79 444.62 259.25 429.06 263.6 413.2 269.09 397.08 275.88 380.77 284.02 364.31 293.46 347.77 304.03 331.2 315.45 314.65 327.37 298.19 339.38 281.85 351.04 265.68 361.94 249.72 371.69 234.01 380 218.57 386.71 203.42 391.74 188.58 396.23 166.95 397.27 159.85" stroke-dasharray="2 4" transform="rotate(20.200000000000003, 400, 400)" opacity="0.24"></path><path d="M401.88 170.11C403.33 159.46 418.61 158.7 428.02 168.8Q438.81 181.62 448.27 194.73 456.11 208.14 462.2 221.85 466.5 235.87 469.13 250.2 470.32 264.82 470.43 279.72 469.89 294.88 469.21 310.27 468.93 325.86 469.54 341.62 471.5 357.5 475.19 373.45 480.84 389.43 488.58 405.4 498.34 421.29 509.94 437.06 523.03 452.65 537.15 468.01 551.76 483.11 566.26 497.88 580.04 512.29 592.56 526.31 603.32 539.91 611.96 553.05 618.29 565.73 622.25 577.93 623.98 589.65 623.78 600.9 622.1 611.69 619.51 622.05C617.45 629.26 603.23 643.92 593 648.51Q580.4 652.69 567.8 655 555.19 655.31 542.59 653.6 529.99 649.96 517.38 644.63 504.78 637.93 492.18 630.26 479.57 622.1 466.97 613.94 454.37 606.27 441.76 599.57 429.16 594.24 416.56 590.61 403.95 588.9 391.35 589.21 378.75 591.53 366.14 595.71 353.54 601.5 340.94 608.54 328.33 616.41 315.73 624.63 303.13 632.69 290.52 640.11 277.92 646.43 265.32 651.27 252.71 654.33 240.11 655.43 227.5 654.5 214.9 651.59 202.3 646.89 189.69 640.67C179.47 634.78 175.1 619.58 181.78 612.9Q191.18 603.37 200.52 593.51 209.56 583.27 218.09 572.64 225.9 561.57 232.86 550.06 238.87 538.09 243.91 525.66 248.04 512.77 251.4 499.45 254.18 485.7 256.63 471.56 259.05 457.05 261.75 442.22 265.01 427.1 269.12 411.74 274.27 396.19 280.63 380.5 288.23 364.71 297.04 348.88 306.94 333.05 317.7 317.28 329.02 301.6 340.56 286.06 351.94 270.7 362.78 255.54 372.73 240.61 381.49 225.95 388.85 211.56 394.68 197.45 400.44 176.87 401.88 170.11" stroke-dasharray="9 4" transform="rotate(24.24, 400, 400)" opacity="0.28"></path><path d="M405.79 180.38C407.89 170.25 422.56 169.51 430.81 179.1Q440.03 191.26 447.87 203.67 454.17 216.37 458.87 229.34 462.02 242.59 463.79 256.13 464.43 269.94 464.28 284.02 463.74 298.34 463.24 312.89 463.24 327.64 464.16 342.56 466.37 357.61 470.16 372.77 475.73 387.99 483.16 403.22 492.4 418.43 503.28 433.57 515.52 448.59 528.74 463.46 542.49 478.12 556.27 492.53 569.56 506.66 581.86 520.46 592.76 533.91 601.88 546.99 609.01 559.65 614.01 571.9 616.94 583.71 617.95 595.09 617.35 606.03 615.56 616.54C613.82 623.85 600.07 637.23 590.25 640.52Q578.13 643.1 566.01 643.92 553.89 642.92 541.77 640.17 529.65 635.81 517.53 630.09 505.41 623.32 493.29 615.87 481.18 608.15 469.06 600.59 456.94 593.61 444.82 587.58 432.7 582.84 420.58 579.65 408.46 578.18 396.34 578.52 384.22 580.65 372.1 584.45 359.98 589.71 347.86 596.14 335.74 603.39 323.63 611.06 311.51 618.72 299.39 625.97 287.27 632.38 275.15 637.62 263.03 641.4 250.91 643.51 238.79 643.82 226.67 642.33 214.55 639.12 202.43 634.36C192.61 629.54 188.6 615.42 195.08 608.75Q204.07 599.19 212.83 589.27 221.18 578.97 228.93 568.27 235.93 557.15 242.08 545.61 247.35 533.66 251.73 521.28 255.32 508.51 258.25 495.36 260.7 481.85 262.92 468.01 265.16 453.88 267.7 439.48 270.78 424.86 274.64 410.06 279.47 395.13 285.39 380.1 292.45 365.01 300.65 349.92 309.87 334.87 319.94 319.88 330.63 305 341.64 290.27 352.64 275.71 363.31 261.36 373.33 247.22 382.4 233.33 390.3 219.69 396.86 206.32 403.9 186.8 405.79 180.38" stroke-dasharray="11 3" transform="rotate(28.28, 400, 400)" opacity="0.32"></path><path d="M408.82 190.64C411.65 181.05 425.65 180.33 432.66 189.4Q440.28 200.89 446.56 212.62 451.43 224.6 454.91 236.83 457.09 249.32 458.18 262.08 458.41 275.08 458.12 288.33 457.65 301.82 457.38 315.52 457.67 329.42 458.88 343.49 461.3 357.71 465.17 372.04 470.63 386.46 477.73 400.93 486.45 415.41 496.63 429.87 508.04 444.26 520.38 458.55 533.27 472.69 546.28 486.66 559 500.42 570.99 513.92 581.87 527.14 591.31 540.05 599.07 552.62 604.98 564.84 609.01 576.68 611.22 588.13 611.8 599.18 611.02 609.84C609.84 617.26 596.96 629.28 587.53 631.3Q575.9 632.37 564.28 631.84 552.65 629.73 541.03 626.14 529.4 621.26 517.78 615.33 506.15 608.63 494.53 601.5 482.9 594.29 471.28 587.36 459.66 581.04 448.03 575.66 436.41 571.48 424.78 568.7 413.16 567.46 401.53 567.82 389.91 569.77 378.28 573.21 366.66 577.96 355.03 583.8 343.41 590.43 331.78 597.54 320.16 604.75 308.53 611.73 296.91 618.12 285.28 623.62 273.66 627.94 262.03 630.87 250.41 632.28 238.78 632.08 227.16 630.29 215.53 627.01C206.1 623.34 202.32 610.43 208.51 603.72Q216.94 594.08 225.02 584.08 232.59 573.71 239.52 562.96 245.7 551.82 251.07 540.31 255.62 528.42 259.39 516.18 262.48 503.59 265.01 490.69 267.18 477.49 269.19 464.03 271.27 450.33 273.64 436.44 276.54 422.38 280.17 408.19 284.67 393.91 290.17 379.58 296.71 365.23 304.29 350.91 312.84 336.64 322.22 322.46 332.23 308.39 342.64 294.47 353.19 280.72 363.57 267.17 373.52 253.83 382.76 240.71 391.06 227.82 398.23 215.18 406.5 196.71 408.82 190.64" stroke-dasharray="7 8" transform="rotate(32.32, 400, 400)" opacity="0.35"></path><path d="M410.86 200.9C414.4 191.85 427.71 191.15 433.44 199.7Q439.52 210.53 444.35 221.57 447.95 232.84 450.38 244.34 451.78 256.08 452.35 268.05 452.33 280.25 451.99 292.68 451.66 305.33 451.63 318.18 452.22 331.22 453.7 344.44 456.3 357.8 460.21 371.29 465.53 384.89 472.31 398.55 480.51 412.26 490 425.98 500.61 439.68 512.07 453.33 524.09 466.89 536.31 480.33 548.39 493.62 559.97 506.73 570.71 519.62 580.3 532.27 588.51 544.65 595.16 556.74 600.16 568.51 603.51 579.96 605.28 591.07 605.64 601.82C605.17 609.33 593.45 620 584.43 620.8Q573.32 620.51 562.21 618.83 551.09 615.81 539.98 611.61 528.87 606.4 517.76 600.41 506.64 593.91 495.53 587.19 484.42 580.53 473.31 574.24 462.2 568.59 451.08 563.83 439.97 560.17 428.86 557.77 417.75 556.74 406.63 557.12 395.52 558.9 384.41 562 373.3 566.27 362.19 571.54 351.07 577.57 339.96 584.09 328.85 590.82 317.74 597.46 306.63 603.72 295.51 609.32 284.4 614.01 273.29 617.59 262.18 619.91 251.07 620.85 239.95 620.37 228.84 618.51C219.82 616.02 216.15 604.38 221.92 597.59Q229.67 587.87 236.98 577.81 243.73 567.4 249.81 556.65 255.18 545.55 259.79 534.13 263.67 522.39 266.88 510.35 269.51 498.03 271.7 485.45 273.61 472.64 275.43 459.63 277.35 446.44 279.58 433.11 282.31 419.67 285.69 406.14 289.88 392.56 294.96 378.97 300.99 365.39 307.97 351.85 315.85 338.39 324.52 325.02 333.83 311.77 343.6 298.67 353.61 285.74 363.61 272.99 373.35 260.44 382.61 248.09 391.15 235.96 398.79 224.05 408.12 206.63 410.86 200.9" stroke-dasharray="7 3" transform="rotate(36.36, 400, 400)" opacity="0.39"></path><path d="M411.83 211.16C416.04 202.64 428.59 201.97 433.1 210Q437.73 220.17 441.28 230.53 443.79 241.09 445.38 251.86 446.18 262.84 446.39 274.03 446.23 285.44 445.94 297.05 445.79 308.86 446.03 320.87 446.9 333.05 448.61 345.4 451.36 357.9 455.28 370.54 460.45 383.29 466.89 396.12 474.57 409.02 483.39 421.97 493.2 434.92 503.81 447.87 514.96 460.77 526.37 473.61 537.76 486.35 548.84 498.96 559.3 511.42 568.89 523.71 577.37 535.79 584.58 547.65 590.39 559.26 594.74 570.6 597.64 581.66 599.18 592.43C599.53 599.99 589.17 609.34 580.6 609.06Q570.02 607.6 559.44 604.98 548.87 601.29 538.29 596.68 527.72 591.32 517.14 585.43 506.57 579.24 495.99 572.99 485.41 566.93 474.84 561.28 464.26 556.27 453.69 552.1 443.11 548.93 432.54 546.89 421.96 546.04 411.38 546.44 400.81 548.05 390.23 550.82 379.66 554.64 369.08 559.36 358.51 564.8 347.93 570.74 337.36 576.95 326.78 583.19 316.2 589.22 305.63 594.79 295.05 599.7 284.48 603.75 273.9 606.77 263.33 608.67 252.75 609.35 242.18 608.79C233.6 607.44 229.91 597.08 235.19 590.24Q242.16 580.47 248.64 570.38 254.53 559.99 259.78 549.31 264.35 538.33 268.25 527.08 271.51 515.58 274.2 503.83 276.43 491.86 278.31 479.69 279.99 467.35 281.64 454.87 283.43 442.25 285.52 429.54 288.07 416.76 291.22 403.94 295.1 391.11 299.78 378.28 305.31 365.49 311.7 352.76 318.91 340.11 326.87 327.57 335.47 315.15 344.55 302.88 353.95 290.76 363.46 278.81 372.88 267.04 382 255.47 390.62 244.09 398.56 232.91 408.74 216.55 411.83 211.16" stroke-dasharray="8 2" transform="rotate(40.400000000000006, 400, 400)" opacity="0.43"></path><path d="M411.7 221.41C416.47 213.44 428.24 212.79 431.61 220.31Q434.96 229.81 437.42 239.49 439.05 249.35 439.98 259.39 440.36 269.62 440.35 280.05 440.17 290.66 440 301.46 440.07 312.44 440.57 323.6 441.7 334.93 443.63 346.41 446.49 358.04 450.38 369.81 455.37 381.69 461.46 393.68 468.63 405.74 476.8 417.87 485.84 430.03 495.6 442.22 505.89 454.4 516.48 466.56 527.14 478.67 537.63 490.7 547.7 502.64 557.13 514.45 565.72 526.13 573.3 537.64 579.72 548.97 584.91 560.09 588.83 570.99 591.5 581.66C592.68 589.18 583.81 597.3 575.69 596.1Q565.68 593.7 555.67 590.38 545.66 586.23 535.65 581.41 525.64 576.08 515.63 570.43 505.62 564.64 495.61 558.91 485.6 553.46 475.6 548.45 465.59 544.06 455.58 540.45 445.57 537.74 435.56 536.01 425.55 535.34 415.54 535.74 405.53 537.19 395.52 539.66 385.51 543.05 375.5 547.25 365.49 552.12 355.48 557.48 345.47 563.15 335.46 568.94 325.45 574.65 315.44 580.08 305.43 585.05 295.42 589.38 285.4 592.93 275.39 595.58 265.38 597.23 255.37 597.82C247.25 597.51 243.48 588.42 248.17 581.56Q254.3 571.8 259.91 561.77 264.94 551.49 269.37 540.96 273.19 530.2 276.43 519.22 279.13 508.04 281.36 496.68 283.23 485.15 284.84 473.47 286.33 461.68 287.83 449.78 289.49 437.8 291.44 425.77 293.83 413.71 296.76 401.64 300.33 389.57 304.61 377.54 309.65 365.56 315.46 353.65 322.03 341.84 329.28 330.13 337.15 318.54 345.52 307.09 354.25 295.78 363.19 284.64 372.16 273.66 381 262.85 389.53 252.22 397.58 241.77 408.36 226.46 411.7 221.41" stroke-dasharray="7 7" transform="rotate(44.44, 400, 400)" opacity="0.47"></path><path d="M410.53 231.68C415.7 224.24 426.65 223.62 429.03 230.62Q431.3 239.47 432.87 248.47 433.82 257.63 434.29 266.95 434.4 276.44 434.31 286.1 434.19 295.92 434.2 305.91 434.51 316.07 435.27 326.39 436.64 336.86 438.75 347.48 441.68 358.24 445.52 369.13 450.3 380.14 456.04 391.25 462.7 402.45 470.22 413.73 478.52 425.07 487.46 436.45 496.89 447.85 506.64 459.27 516.53 470.67 526.37 482.03 535.95 493.35 545.09 504.6 553.61 515.76 561.36 526.81 568.2 537.74 574.04 548.52 578.8 559.14 582.48 569.58C584.44 576.98 577.12 583.98 569.48 582.05Q560.06 578.96 550.65 575.17 541.23 570.78 531.82 565.94 522.4 560.78 512.99 555.47 503.57 550.15 494.16 545 484.75 540.16 475.33 535.77 465.92 531.98 456.5 528.89 447.09 526.6 437.67 525.17 428.26 524.65 418.85 525.05 409.43 526.36 400.02 528.54 390.6 531.53 381.19 535.24 371.77 539.55 362.36 544.34 352.95 549.46 343.53 554.76 334.12 560.09 324.7 565.27 315.29 570.16 305.88 574.62 296.46 578.5 287.05 581.69 277.63 584.09 268.22 585.64C260.58 586.24 256.68 578.33 260.74 571.52Q265.99 561.87 270.72 552 274.92 541.92 278.58 531.65 281.71 521.21 284.35 510.6 286.55 499.84 288.38 488.95 289.94 477.95 291.32 466.85 292.63 455.67 294 444.43 295.54 433.15 297.37 421.85 299.59 410.54 302.29 399.25 305.56 387.99 309.47 376.77 314.03 365.62 319.28 354.55 325.21 343.58 331.77 332.7 338.9 321.95 346.53 311.32 354.55 300.83 362.84 290.49 371.27 280.29 379.69 270.25 387.97 260.37 395.95 250.64 407.02 236.38 410.53 231.68" stroke-dasharray="4 6" transform="rotate(48.48, 400, 400)" opacity="0.51"></path><path d="M408.38 241.93C413.78 235.02 423.9 234.44 425.46 240.93Q427.56 257.52 428.42 274.52 428.41 283.27 428.35 292.17 428.36 301.22 428.57 310.41 429.13 319.76 430.14 329.24 431.72 338.86 433.96 348.62 436.93 358.51 440.68 368.52 445.24 378.65 450.61 388.87 456.77 399.2 463.67 409.6 471.23 420.08 479.37 430.62 487.96 441.2 496.87 451.81 505.97 462.44 515.09 473.07 524.1 483.69 532.82 494.28 541.11 504.82 548.85 515.3 555.9 525.71 562.17 536.02 567.58 546.23 572.08 556.31C574.75 563.49 568.9 569.48 561.76 567.04Q544.19 559.46 526.61 550.34 509.04 540.61 491.46 531.26 473.89 523.25 456.31 517.41 438.74 514.34 421.16 514.35 403.59 517.44 386.01 523.29 368.44 531.3 350.86 540.66 333.28 550.39 315.71 559.51 298.13 567.07 280.56 572.31C273.42 573.63 269.36 566.84 272.78 560.16Q277.14 550.72 281.03 541.12 284.44 531.36 287.39 521.47 289.89 511.45 292 501.31 293.76 491.07 295.25 480.74 296.55 470.34 297.74 459.89 298.91 449.39 300.16 438.87 301.59 428.34 303.29 417.81 305.34 407.3 307.83 396.82 310.81 386.38 314.34 376 318.45 365.7 323.16 355.47 328.46 345.34 334.34 335.3 340.74 325.38 347.62 315.58 354.9 305.9 362.48 296.35 370.28 286.93 378.17 277.65 386.04 268.51 393.77 259.51 404.82 246.29 408.38 241.93" stroke-dasharray="10 6" transform="rotate(52.52, 400, 400)" opacity="0.54"></path><path d="M405.41 252.19C410.84 245.82 420.1 245.27 421.02 251.25Q422.24 266.45 422.48 282.12 422.51 298.29 423.15 314.97 425.19 332.16 429.27 349.85 435.87 368.01 445.19 386.59 457.14 405.54 471.34 424.8 487.19 444.29 503.85 463.92 520.4 483.61 535.87 503.26 549.42 522.76 560.36 542.03C563.57 548.89 559.08 554 552.49 551.25Q536.22 543.44 519.95 534.73 503.68 525.9 487.42 517.71 471.15 510.89 454.88 506.02 438.61 503.53 422.35 503.65 406.08 506.36 389.81 511.42 373.54 518.4 357.27 526.68 341.01 535.53 324.74 544.18 308.47 551.88 292.2 557.95C285.61 559.81 281.39 554.03 284.18 547.56Q290.78 529.25 295.78 510.51 299.39 491.45 301.99 472.13 304.1 452.68 306.3 433.17 309.2 413.7 313.37 394.37 319.24 375.25 327.09 356.42 337 337.94 348.82 319.86 362.17 302.23 376.52 285.06 391.18 268.38 405.41 252.19 405.41 252.19 405.41 252.19" stroke-dasharray="6 6" transform="rotate(56.56, 400, 400)" opacity="0.58"></path><path d="M401.78 262.44C407.06 256.62 415.47 256.1 415.94 261.56Q416.49 275.44 416.6 289.73 416.89 304.44 417.97 319.58 420.41 335.16 424.69 351.17 431.09 367.6 439.76 384.41 450.61 401.57 463.38 419.04 477.59 436.77 492.65 454.69 507.87 472.74 522.51 490.84 535.88 508.93 547.38 526.92C550.97 533.37 547.67 537.76 541.63 534.89Q526.71 527.25 511.8 519.23 496.89 511.42 481.98 504.4 467.07 498.69 452.16 494.71 437.25 492.75 422.34 492.96 407.43 495.32 392.52 499.65 377.6 505.64 362.69 512.85 347.78 520.74 332.87 528.73 317.96 536.25 303.05 542.72C297 544.94 292.69 540.02 294.87 533.86Q299.97 516.52 303.79 498.92 306.55 481.13 308.62 463.23 310.42 445.28 312.43 427.38 315.11 409.57 318.91 391.94 324.16 374.53 331.09 357.41 339.78 340.61 350.15 324.17 361.97 308.12 374.85 292.48 388.31 277.25 401.78 262.44 401.78 262.44 401.78 262.44" stroke-dasharray="2 2" transform="rotate(60.599999999999994, 400, 400)" opacity="0.62"></path><path d="M397.7 272.7C402.66 267.4 410.23 266.92 410.43 271.88Q410.68 284.45 410.88 297.36 411.52 310.62 413.04 324.25 415.83 338.24 420.19 352.61 426.34 367.32 434.33 382.38 444.11 397.76 455.48 413.43 468.09 429.35 481.54 445.49 495.32 461.81 508.89 478.24 521.71 494.74 533.29 511.26C537.06 517.19 534.78 520.98 529.29 518.19Q515.77 511.04 502.25 503.9 488.73 497.19 475.22 491.32 461.7 486.66 448.18 483.49 434.66 481.99 421.14 482.26 407.62 484.29 394.1 487.95 380.58 493.01 367.06 499.18 353.54 506.06 340.02 513.26 326.5 520.31 312.98 526.8C307.5 529.18 303.18 525.02 304.81 519.26Q308.6 503.12 311.42 486.84 313.5 470.5 315.15 454.13 316.71 437.81 318.55 421.57 321.02 405.47 324.45 389.56 329.1 373.88 335.15 358.46 342.68 343.33 351.65 328.52 361.93 314.04 373.26 299.91 385.32 286.13 397.7 272.7 397.7 272.7 397.7 272.7" stroke-dasharray="6 9" transform="rotate(64.64, 400, 400)" opacity="0.66"></path><path d="M393.4 282.96C397.9 278.2 404.63 277.76 404.73 282.21Q404.96 293.48 405.43 305.03 406.47 316.87 408.38 329 411.43 341.43 415.8 354.17 421.61 367.21 428.91 380.54 437.63 394.14 447.64 408.01 458.71 422.12 470.54 436.45 482.8 450.96 495.1 465.62 507.04 480.41 518.26 495.28C522.05 500.64 520.54 503.95 515.63 501.36Q503.53 494.98 491.43 488.85 479.33 483.27 467.22 478.51 455.12 474.81 443.02 472.35 430.92 471.25 418.81 471.57 406.71 473.3 394.61 476.34 382.51 480.54 370.4 485.71 358.3 491.58 346.2 497.86 334.09 504.24 321.99 510.42C317.08 512.79 312.84 509.25 314.01 503.96Q316.7 489.22 318.72 474.45 320.28 459.68 321.61 444.96 322.98 430.33 324.67 415.82 326.93 401.46 330 387.28 334.07 373.32 339.29 359.6 345.71 346.13 353.34 332.92 362.1 320 371.85 307.37 387.89 288.99 393.4 282.96" stroke-dasharray="5 10" transform="rotate(68.68, 400, 400)" opacity="0.70"></path><path d="M389.14 293.21C393.08 288.98 398.97 288.58 399.09 292.54Q399.52 302.51 400.34 312.71 401.78 323.14 404.02 333.81 407.22 344.71 411.49 355.86 416.91 367.25 423.48 378.89 431.16 390.75 439.86 402.84 449.43 415.14 459.68 427.64 470.37 440.33 481.26 453.17 492.07 466.15 502.53 479.26C506.17 484.01 505.22 486.9 500.89 484.64Q490.22 479.21 479.54 474.16 468.87 469.68 458.19 465.95 447.51 463.11 436.84 461.28 426.16 460.52 415.48 460.87 404.81 462.32 394.13 464.8 383.45 468.22 372.78 472.44 362.1 477.31 351.42 482.62 340.74 488.18 330.07 493.77C325.74 495.98 321.69 492.98 322.49 488.23Q324.33 475.06 325.74 461.91 326.91 448.83 328.01 435.82 329.23 422.93 330.78 410.16 332.83 397.55 335.55 385.12 339.07 372.86 343.49 360.82 348.88 348.98 355.24 337.37 362.55 325.98 370.72 314.83 384.39 298.56 389.14 293.21" stroke-dasharray="2 10" transform="rotate(72.72, 400, 400)" opacity="0.73"></path><path d="M385.14 303.48C388.44 299.78 393.54 299.42 393.75 302.87Q394.51 311.57 395.71 320.43 397.49 329.47 399.95 338.7 403.2 348.11 407.28 357.7 412.23 367.49 418.05 377.47 424.71 387.63 432.15 397.98 440.28 408.5 448.98 419.19 458.1 430.05 467.48 441.05 476.96 452.19 486.34 463.46C489.66 467.55 489.1 470.12 485.35 468.25Q476.09 463.87 466.84 459.9 457.59 456.46 448.34 453.67 439.09 451.59 429.83 450.29 420.58 449.82 411.33 450.18 402.08 451.37 392.83 453.35 383.57 456.05 374.32 459.41 365.07 463.31 355.82 467.65 346.56 472.29 337.31 477.09C333.55 479.05 329.81 476.47 330.32 472.32Q331.53 460.84 332.53 449.41 333.43 438.07 334.37 426.83 335.48 415.7 336.9 404.69 338.73 393.82 341.1 383.1 344.09 372.54 347.77 362.14 352.2 351.92 357.38 341.87 363.31 332 369.97 322.31 381.21 308.14 385.14 303.48" stroke-dasharray="3 5" transform="rotate(76.76, 400, 400)" opacity="0.77"></path><path d="M381.66 313.73C384.29 310.57 388.62 310.26 388.96 313.21Q391.61 328.17 396.2 343.66 403.15 359.7 412.62 376.3 424.51 393.46 438.46 411.17 453.86 429.41 469.94 448.13C472.84 451.55 472.49 453.82 469.31 452.38Q453.63 446.12 437.94 441.66 422.26 439.38 406.57 439.49 390.88 441.97 375.2 446.61 359.51 453.01 343.82 460.6C340.64 462.22 337.32 460.01 337.64 456.49Q339.15 437.12 340.72 418.08 343.01 399.44 346.65 381.26 352.13 363.58 359.77 346.43 369.66 329.81 381.66 313.73 381.66 313.73 381.66 313.73" stroke-dasharray="5 4" transform="rotate(80.80000000000001, 400, 400)" opacity="0.81"></path><path d="M378.88 323.99C380.87 321.36 384.44 321.09 384.92 323.54Q388.09 335.95 392.76 348.71 399.11 361.86 407.19 375.39 416.94 389.33 428.15 403.66 440.5 418.39 453.59 433.49C455.98 436.24 455.73 438.22 453.11 437.2Q440.2 432.87 427.29 429.92 414.37 428.53 401.46 428.79 388.55 430.67 375.63 434.07 362.72 438.77 349.8 444.49C347.18 445.75 344.36 443.87 344.56 441Q345.69 425.19 347.08 409.67 349.14 394.48 352.2 379.63 356.57 365.15 362.42 351.05 374.38 330.66 378.88 323.99" stroke-dasharray="10 7" transform="rotate(84.84, 400, 400)" opacity="0.85"></path><path d="M376.99 334.26C378.39 332.15 381.21 331.94 381.79 333.89Q385.19 343.76 389.63 353.85 395.15 364.19 401.76 374.78 409.43 385.62 418.04 396.73 427.47 408.09 437.53 419.71C439.39 421.83 439.15 423.52 437.09 422.87Q426.89 420.2 416.68 418.48 406.48 417.77 396.27 418.1 386.07 419.46 375.86 421.79 365.66 425.01 355.45 428.99C353.39 429.87 351.13 428.32 351.28 426.07Q352.23 413.77 353.49 401.69 355.28 389.85 357.76 378.24 361.09 366.87 365.36 355.75 373.82 339.57 376.99 334.26" stroke-dasharray="10 2" transform="rotate(88.88, 400, 400)" opacity="0.89"></path><path d="M376.1 344.52C376.99 342.95 379.1 342.78 379.69 344.24Q386.8 359.08 396.33 374.45 408.17 390.4 421.97 406.94C423.3 408.46 423.06 409.81 421.52 409.47Q406.4 407.3 391.28 407.4 376.16 409.77 361.04 414.2C359.5 414.75 357.85 413.52 357.99 411.9Q359.97 394.22 363.33 377.09 372.35 352.52 376.1 344.52" stroke-dasharray="9 4" transform="rotate(92.92, 400, 400)" opacity="0.92"></path><path d="M376.31 354.79C376.79 353.73 378.2 353.62 378.7 354.6Q384.26 364.4 390.89 374.43 398.54 384.72 407.12 395.26C407.93 396.23 407.71 397.2 406.7 397.08Q396.73 396.39 386.76 396.71 376.79 398.03 366.81 400.29C365.81 400.57 364.76 399.69 364.87 398.65Q366.53 387.3 368.89 376.21 374.21 360.08 376.31 354.79" stroke-dasharray="5 5" transform="rotate(96.96, 400, 400)" opacity="0.96"></path></g></svg>