<svg xmlns="http://www.w3.org/2000/svg" version="1.1" xmlns:xlink="http://www.w3.org/1999/xlink" xmlns:svgjs="http://svgjs.dev/svgjs" viewBox="0 0 800 800"><defs><linearGradient x1="50%" y1="0%" x2="50%" y2="100%" id="ccchaos-grad"><stop stop-color="hsl(206, 75%, 49%)" stop-opacity="1" offset="0%"></stop><stop stop-color="hsl(331, 90%, 56%)" stop-opacity="1" offset="100%"></stop></linearGradient></defs><g stroke-width="2" stroke="url(#ccchaos-grad)" fill="none" stroke-linecap="round"><path d="M394.66 111.97C393.08 100.46 412.58 106.25 428.38 121.99Q437.42 131.86 445.43 141.78 452.16 151.72 457.4 161.67 461.06 171.62 463.14 181.55 463.76 191.44 463.11 201.29 461.51 211.06 459.3 220.75 456.92 230.34 454.78 239.81 453.3 249.16 452.88 258.35 453.84 267.4 456.41 276.27 460.73 284.97 466.81 293.49 474.56 301.81 483.78 309.94 494.14 317.87 505.27 325.61 516.72 333.14 528.02 340.49 538.68 347.64 548.27 354.62 561.91 368 569.98 380.95 569.04 393.35 564.12 405.52 556.94 417.54 551.43 429.62 553.07 442.01 560.69 454.75 568.15 461.37 577.51 468.16 588.44 475.16 600.53 482.38 613.26 489.82 626.09 497.52 638.45 505.47 649.79 513.7 659.62 522.2 667.57 530.99 673.34 540.06 676.82 549.42 678.01 559.07 677.1 568.99 674.37 579.17 670.27 589.62 665.33 600.31 660.13 611.23 655.29 622.35 651.41 633.66 649.02 645.13 648.58 656.74C652 673.63 647.38 680.74 634.46 670.52Q618.54 660.37 602.62 654.28 586.7 653.11 570.78 657.03 554.86 665.48 538.94 677.25 523.02 690.67 507.1 703.81 491.18 714.8 475.26 722.06 459.34 724.57 443.42 721.96 427.5 714.61 411.58 703.56 395.66 690.4 379.74 677 363.82 665.28 347.9 656.9 331.98 653.08 316.06 654.35 300.13 660.54 284.21 670.75 268.29 683.53 252.37 697.06 236.45 709.4 220.53 718.79 204.61 723.89 188.69 723.97 172.77 719.02 156.85 709.74 140.93 697.47 125.01 683.95C112.1 673.4 102.99 653.3 109.12 645.41Q119.49 634.78 131.06 624.27 143.64 613.66 156.02 602.81 166.68 591.31 175.64 579.28 181.47 566.19 185.67 552.37 188.47 537.26 191.49 521.35 193.59 512.93 196.29 504.25 199.72 495.33 203.95 486.16 209.01 476.76 214.87 467.15 221.45 457.34 228.6 447.35 236.15 437.19 243.88 426.9 251.56 416.48 258.95 405.96 265.83 395.36 272 384.71 277.31 374.03 281.65 363.33 284.98 352.65 287.34 342 288.81 331.4 289.55 320.87 289.78 310.44 289.73 300.11 289.7 289.9 289.95 279.83 290.76 269.9 292.37 260.14 294.98 250.54 298.7 241.11 303.61 231.86 309.67 222.79 316.81 213.9 324.83 205.18 333.52 196.65 342.58 188.28 351.71 180.08 360.56 172.04 368.84 164.14 376.24 156.38 386.9 141.27 393.59 126.46 394.66 115.58 394.66 111.97" stroke-dasharray="6 5" transform="rotate(0, 400, 400)" opacity="1.00"></path><path d="M400.66 122.59C400.58 111.58 419.66 117.32 433.5 132.5Q440.88 142.03 447.04 151.59 451.81 161.19 455.14 170.79 457.03 180.4 457.6 189.99 457.02 199.56 455.56 209.08 453.54 218.54 451.32 227.92 449.28 237.22 447.79 246.42 447.2 255.5 447.8 264.45 449.82 273.26 453.41 281.92 458.63 290.42 465.41 298.75 473.63 306.91 483.04 314.89 493.34 322.68 504.16 330.28 515.09 337.7 525.7 344.94 535.6 351.99 544.42 358.86 556.76 372.04 563.93 384.76 562.91 396.86 558.27 408.68 551.48 420.21 546.04 431.69 546.81 443.3 552.96 455.11 559.39 461.19 567.63 467.41 577.46 473.77 588.54 480.3 600.45 487.03 612.73 493.95 624.87 501.1 636.39 508.48 646.81 516.1 655.74 523.98 662.85 532.12 667.94 540.52 670.91 549.19 671.81 558.12 670.79 567.33 668.15 576.79 664.26 586.51 659.59 596.48 654.67 606.68 650.02 617.1 646.2 627.72 643.67 638.53C643.12 654.36 633.63 661.57 621.28 653.05Q606.05 645.56 590.82 642.32 575.6 643.74 560.37 649.64 545.14 659.24 529.91 671.28 514.69 684.15 499.46 696.17 484.23 705.73 469 711.58 453.78 712.94 438.55 709.64 423.32 702.1 408.09 691.34 392.87 678.76 377.64 666.03 362.41 654.84 347.18 646.66 331.96 642.57 316.73 643.12 301.5 648.23 286.27 657.23 271.05 668.93 255.82 681.77 240.59 694.07 225.36 704.2 210.14 710.82 194.91 713.05 179.68 710.59 164.45 703.78 149.22 693.52 134 681.15C121.64 670.7 113.89 650.65 120.64 643.41Q131.64 633.39 143.53 623.27 155.72 612.73 167.31 601.79 176.73 590.01 184.38 577.61 189.11 564.08 192.49 549.82 195.01 534.31 198 518.07 200.19 509.52 203.01 500.75 206.55 491.76 210.86 482.56 215.96 473.18 221.8 463.61 228.29 453.89 235.3 444.02 242.66 434.03 250.17 423.93 257.63 413.75 264.81 403.5 271.51 393.21 277.56 382.89 282.8 372.57 287.14 362.26 290.53 351.99 292.99 341.76 294.58 331.61 295.44 321.54 295.74 311.58 295.69 301.73 295.54 292 295.55 282.42 295.95 272.98 297 263.69 298.88 254.57 301.75 245.62 305.71 236.83 310.77 228.21 316.92 219.76 324.03 211.48 331.94 203.37 340.44 195.41 349.25 187.6 358.1 179.94 366.68 172.42 374.71 165.02 381.93 157.73 388.12 150.55 398.46 129.53 400.66 122.59" stroke-dasharray="5 11" transform="rotate(4.04, 400, 400)" opacity="0.96"></path><path d="M404.97 133.22C406.97 122.7 425.53 128.37 436.75 143.01Q446.48 161.4 450.99 179.9 450.83 198.41 447.58 216.83 443.62 235.05 441.52 252.96 443.56 270.46 451.14 287.47 464.47 303.9 482.47 319.69 502.99 334.81 523.24 349.22 540.42 362.94 552.32 376 557.85 388.45 557.33 400.36 552.41 411.84 545.81 423 540.66 433.97 539.88 444.92 545.48 455.97 558.11 467.31 576.85 479.06 599.4 491.39 622.56 504.42 642.9 518.25 657.55 532.99 664.81 548.7 664.63 565.4 658.57 583.1 649.56 601.76 641.27 621.32C637.77 635.9 624.05 643.53 612.18 637.05Q597.54 632.36 582.91 631.84 568.28 635.54 553.64 643.03 539.01 653.38 524.38 665.33 509.75 677.43 495.11 688.19 480.48 696.32 465.85 700.81 451.21 701.13 436.58 697.22 421.95 689.57 407.31 679.12 392.68 667.12 378.05 655.06 363.41 644.39 348.78 636.42 334.15 632.12 319.51 632.02 304.88 636.12 290.25 643.93 275.61 654.5 260.98 666.53 246.35 678.56 231.71 689.13 217.08 696.93 202.45 701.03 187.81 700.93 173.18 696.63 158.55 688.65 143.91 677.99C132.04 668.23 125.61 648.67 132.95 641.79Q144.28 632.04 156.25 621.93 167.91 611.28 178.3 599.97 186.68 587.88 192.72 574.93 196.65 561.06 199.17 546.26 201.39 530.53 204.57 513.92 209.82 496.49 217.86 478.33 228.78 459.55 242.03 440.29 256.49 420.67 270.68 400.84 283.11 380.95 292.61 361.13 298.61 341.53 301.32 322.25 301.71 303.41 301.33 285.08 301.99 267.33 305.32 250.2 312.45 233.71 323.7 217.84 338.43 202.59 355.23 187.89 372.12 173.69 387.06 159.9 401.64 139.83 404.97 133.22" stroke-dasharray="5 11" transform="rotate(8.08, 400, 400)" opacity="0.92"></path><path d="M407.17 143.86C411.52 133.83 429.49 139.43 437.73 153.5Q443.75 171.18 445.23 188.97 443.23 206.79 439.57 224.53 436.48 242.11 436.15 259.42 440.24 276.38 449.58 292.9 463.94 308.91 482.02 324.34 501.75 339.15 520.63 353.32 536.3 366.83 546.94 379.7 551.77 391.97 551.14 403.68 546.55 414.92 540.36 425.78 535.31 436.36 533.99 446.8 538.28 457.21 548.96 467.75 565.52 478.54 586.23 489.72 608.47 501.43 629.23 513.78 645.75 526.87 656.04 540.79 659.39 555.59 656.45 571.31 649.19 587.97 640.52 605.54C635.24 618.71 618.37 627.04 606.92 622.77Q592.79 620.85 578.67 622.8 564.54 628.4 550.42 637.04 536.29 647.73 522.17 659.29 508.04 670.41 493.92 679.86 479.79 686.56 465.67 689.78 451.54 689.15 437.42 684.73 423.29 677.04 409.17 666.92 395.04 655.51 380.92 644.09 366.79 633.94 352.67 626.2 338.54 621.74 324.41 621.05 310.29 624.21 296.16 630.87 282.04 640.29 267.91 651.4 253.79 662.96 239.66 673.67 225.54 682.34 211.41 688 197.29 690 183.16 688.13 169.04 682.59 154.91 674.01C143.46 665.47 138.24 646.79 146 639.99Q157.48 630.19 169.03 619.84 179.75 608.84 188.85 597.09 195.84 584.52 200.65 571.1 203.67 556.8 205.71 541.65 207.85 525.67 211.21 508.93 216.72 491.51 224.92 473.51 235.8 455.04 248.78 436.22 262.8 417.17 276.53 398.04 288.64 378.94 298.04 360 304.18 341.33 307.16 323.02 307.75 305.17 307.27 287.83 307.3 271.05 309.39 254.86 314.76 239.27 323.95 224.26 336.76 209.81 352.22 195.87 368.76 182.38 384.53 169.27 402.47 150.16 407.17 143.86" stroke-dasharray="8 2" transform="rotate(12.12, 400, 400)" opacity="0.89"></path><path d="M407.11 154.5C413.78 144.98 431.05 150.48 436.29 163.97Q439.03 180.94 438.21 198.02 435.21 215.14 431.88 232.2 430.16 249.12 431.77 265.82 437.83 282.21 448.67 298.22 463.72 313.78 481.61 328.83 500.38 343.31 517.85 357.21 532.03 370.49 541.49 383.18 545.66 395.27 544.95 406.81 540.68 417.86 534.9 428.48 529.98 438.76 528.21 448.8 531.32 458.71 540.18 468.6 554.59 478.6 573.32 488.83 594.28 499.41 614.91 510.46 632.67 522.08 645.49 534.37 652.18 547.41 652.67 561.25 648.07 575.94 640.44 591.49C634.57 603.21 615.9 612.37 604.81 610.33Q591.13 610.98 577.45 615.05 563.77 622.13 550.09 631.48 536.41 642.15 522.73 653.04 509.05 663.04 495.37 671.11 481.68 676.44 468 678.47 454.32 676.99 440.64 672.16 426.96 664.47 413.28 654.72 399.6 643.89 385.92 633.11 372.24 623.48 358.56 615.99 344.88 611.41 331.2 610.2 317.52 612.49 303.84 618.05 290.16 626.3 276.48 636.4 262.8 647.32 249.12 657.92 235.44 667.13 221.76 674 208.08 677.82 194.4 678.21 180.72 675.11 167.04 668.86C155.95 661.9 151.69 644.46 159.63 637.53Q170.89 627.43 181.67 616.67 191.19 605.2 198.88 592.95 204.49 579.9 208.17 566.04 210.45 551.39 212.18 535.99 214.35 519.88 217.95 503.15 223.73 485.88 232.08 468.16 242.88 450.12 255.55 431.86 269.12 413.49 282.39 395.14 294.15 376.9 303.43 358.89 309.69 341.18 312.95 323.87 313.8 307.02 313.32 290.67 312.9 274.86 313.96 259.6 317.72 244.9 324.91 230.73 335.65 217.08 349.39 203.88 364.98 191.1 380.87 178.66 395.39 166.48 407.11 154.5 407.11 154.5 407.11 154.5" stroke-dasharray="4 9" transform="rotate(16.16, 400, 400)" opacity="0.85"></path><path d="M404.84 165.17C413.51 156.11 429.98 161.51 432.51 174.45Q432.64 190.7 430.39 207.06 427.23 223.46 424.85 239.82 424.84 256.08 428.44 272.15 436.29 287.96 448.33 303.44 463.77 318.52 481.21 333.15 498.87 347.29 514.89 360.89 527.63 373.93 535.98 386.41 539.55 398.33 538.76 409.72 534.8 420.6 529.42 431.03 524.67 441.08 522.54 450.81 524.61 460.33 531.78 469.72 544.11 479.1 560.76 488.55 580.14 498.21 600.14 508.16 618.53 518.53 633.26 529.39 642.9 540.84 646.84 552.96 645.44 565.79 639.99 579.39C634.65 589.67 615.61 599.7 604.85 599.77Q591.58 602.68 578.31 608.45 565.04 616.54 551.76 626.19 538.49 636.5 525.22 646.5 511.95 655.25 498.68 661.95 485.41 665.95 472.14 666.9 458.86 664.69 445.59 659.53 432.32 651.91 419.05 642.55 405.78 632.31 392.51 622.15 379.24 613.03 365.96 605.8 352.69 601.13 339.42 599.47 326.15 600.96 312.88 605.48 299.61 612.58 286.34 621.62 273.07 631.74 259.79 642.01 246.52 651.44 233.25 659.18 219.98 664.48 206.71 666.86 193.44 666.09 180.17 662.24C169.4 657.1 165.79 641.16 173.62 633.96Q184.26 623.39 193.93 612.13 202.07 600.14 208.31 587.4 212.63 573.93 215.33 559.73 217.05 544.84 218.61 529.31 220.91 513.22 224.8 496.65 230.85 479.67 239.31 462.38 250 444.89 262.35 427.3 275.45 409.7 288.24 392.2 299.64 374.89 308.78 357.84 315.14 341.13 318.68 324.83 319.83 308.98 319.46 293.62 318.76 278.77 318.99 264.43 321.34 250.61 326.64 237.28 335.27 224.4 347.02 211.95 361.14 199.86 376.44 188.08 391.49 176.54 404.84 165.17 404.84 165.17 404.84 165.17" stroke-dasharray="10 11" transform="rotate(20.200000000000003, 400, 400)" opacity="0.81"></path><path d="M400.68 175.84C410.8 167.27 426.35 172.55 426.74 184.9Q425.12 200.43 422.32 216.06 419.74 231.74 418.8 247.4 420.68 262.98 426.2 278.4 435.58 293.6 448.48 308.53 463.98 323.11 480.74 337.31 497.19 351.06 511.74 364.34 523.1 377.11 530.4 389.37 533.42 401.11 532.58 412.34 528.91 423.07 523.93 433.35 519.38 443.21 516.97 452.73 518.13 461.96 523.77 470.97 534.1 479.87 548.64 488.72 566.21 497.64 585.16 506.71 603.56 516.02 619.54 525.68 631.58 535.76 638.72 546.35 640.74 557.52 638.23 569.32C634.32 578.24 616.26 589.05 605.82 590.99Q592.95 595.76 580.08 602.76 567.22 611.41 554.35 620.97 541.48 630.62 528.62 639.55 515.75 646.99 502.88 652.33 490.01 655.1 477.15 655.06 464.28 652.23 451.41 646.83 438.54 639.34 425.68 630.38 412.81 620.72 399.94 611.18 387.07 602.57 374.21 595.61 361.34 590.91 348.47 588.85 335.6 589.62 322.74 593.15 309.87 599.14 297 607.08 284.13 616.29 271.27 626 258.4 635.38 245.53 643.63 232.66 650.05 219.79 654.1 206.93 655.43 194.06 653.93C183.62 650.72 180.24 636.46 187.66 628.88Q197.29 617.78 205.62 606 212.27 593.54 217.09 580.39 220.25 566.59 222.17 552.18 223.51 537.2 225.04 521.71 227.58 505.8 231.78 489.52 238.09 472.98 246.63 456.25 257.18 439.44 269.17 422.61 281.79 405.87 294.08 389.29 305.11 372.94 314.09 356.89 320.53 341.2 324.34 325.92 325.81 311.07 325.65 296.69 324.82 282.79 324.44 269.36 325.61 256.4 329.21 243.88 335.77 231.78 345.37 220.05 357.63 208.64 371.72 197.51 386.49 186.6 400.68 175.84 400.68 175.84 400.68 175.84" stroke-dasharray="1 9" transform="rotate(24.24, 400, 400)" opacity="0.77"></path><path d="M395.1 186.53C405.98 178.43 420.58 183.57 419.49 195.36Q417.07 210.15 414.54 225.05 413.14 240 413.94 254.95 417.76 269.83 425.01 284.59 435.61 299.17 449.03 313.52 464.29 327.58 480.17 341.3 495.3 354.64 508.4 367.56 518.43 380.04 524.76 392.05 527.28 403.58 526.4 414.64 523.02 425.23 518.43 435.37 514.09 445.09 511.48 454.44 511.87 463.45 516.12 472.2 524.59 480.74 537.03 489.15 552.65 497.51 570.16 505.89 588.02 514.37 604.58 523.05 618.36 532 628.21 541.3 633.53 551.02 634.35 561.23C632.49 568.91 616.52 580.38 606.43 583.85Q593.99 589.99 581.55 597.75 569.11 606.52 556.67 615.64 544.23 624.4 531.78 632.13 519.34 638.24 506.9 642.27 494.46 643.89 482.02 642.99 469.58 639.64 457.14 634.09 444.69 626.77 432.25 618.25 419.81 609.16 407.37 600.22 394.93 592.1 382.49 585.44 370.05 580.73 357.6 578.35 345.16 578.47 332.72 581.09 320.28 586.01 307.84 592.84 295.4 601.06 282.96 610.05 270.51 619.11 258.07 627.55 245.63 634.72 233.19 640.07 220.75 643.19 208.31 643.84C198.22 642.52 194.71 630.01 201.41 622.04Q209.73 610.43 216.56 598.19 221.72 585.35 225.24 571.92 227.42 557.94 228.76 543.48 229.9 528.57 231.55 513.29 234.38 497.71 238.91 481.89 245.46 465.93 254.04 449.88 264.4 433.84 276.01 417.88 288.12 402.05 299.91 386.44 310.55 371.1 319.34 356.08 325.84 341.42 329.91 327.16 331.73 313.31 331.84 299.9 331.03 286.93 330.26 274.4 330.49 262.28 332.61 250.56 337.24 239.21 344.67 228.2 354.81 217.47 367.18 206.98 388.03 191.61 395.1 186.53" stroke-dasharray="10 6" transform="rotate(28.28, 400, 400)" opacity="0.73"></path><path d="M388.77 197.22C399.64 189.59 413.26 194.59 411.49 205.79Q409.14 219.85 407.58 234.01 407.77 248.23 410.46 262.45 416.11 276.62 424.81 290.71 436.27 304.65 449.84 318.39 464.6 331.9 479.43 345.12 493.19 358.01 504.86 370.55 513.63 382.69 519.06 394.42 521.13 405.73 520.22 416.59 517.12 427.03 512.9 437.03 508.8 446.63 506.06 455.84 505.81 464.71 508.84 473.26 515.59 481.56 525.99 489.65 539.56 497.6 555.37 505.47 572.21 513.33 588.7 521.25 603.49 529.3 615.4 537.55 623.62 546.08 627.77 554.94C628.29 561.56 615.2 573.47 605.48 578.08Q593.51 585.09 581.54 593.13 569.58 601.63 557.61 610.02 545.64 617.7 533.67 624.16 521.7 628.95 509.73 631.74 497.76 632.33 485.79 630.69 473.82 626.92 461.85 621.3 449.89 614.2 437.92 606.11 425.95 597.6 413.98 589.24 402.01 581.62 390.04 575.26 378.07 570.59 366.1 567.95 354.13 567.5 342.16 569.29 330.19 573.18 318.22 578.92 306.25 586.1 294.29 594.23 282.32 602.75 270.35 611.07 258.38 618.63 246.41 624.89 234.44 629.43 222.47 631.94C212.76 632.36 208.81 621.6 214.55 613.28Q221.36 601.25 226.64 588.68 230.38 575.6 232.78 562.05 234.21 548.08 235.18 533.74 236.3 519.09 238.18 504.18 241.35 489.09 246.22 473.88 252.96 458.62 261.55 443.38 271.68 428.2 282.87 413.17 294.47 398.33 305.74 383.73 315.97 369.42 324.56 355.44 331.09 341.81 335.38 328.56 337.56 315.71 338.01 303.25 337.35 291.2 336.37 279.53 335.93 268.25 336.83 257.31 339.74 246.7 345.08 236.38 353 226.32 363.3 216.47 382.12 202 388.77 197.22" stroke-dasharray="6 8" transform="rotate(32.32, 400, 400)" opacity="0.70"></path><path d="M382.4 207.93C392.56 200.77 405.19 205.61 403.49 216.22Q401.98 229.54 401.89 242.96 403.89 256.43 408.43 269.91 415.67 283.37 425.48 296.76 437.42 310.04 450.83 323.16 464.83 336.08 478.47 348.77 490.83 361.18 501.1 373.29 508.69 385.06 513.3 396.48 514.97 407.52 514.05 418.17 511.21 428.42 507.36 438.28 503.51 447.75 500.72 456.85 499.94 465.59 501.91 474.01 507.09 482.14 515.57 490.02 527.08 497.69 541 505.2 556.41 512.61 572.24 519.98 587.33 527.36 600.57 534.81 611.07 542.4 618.19 550.18C621.08 555.94 611.26 568.02 601.98 573.35Q590.55 580.74 579.11 588.63 567.67 596.53 556.24 603.95 544.8 610.44 533.37 615.6 521.93 619.11 510.49 620.75 499.06 620.43 487.62 618.16 476.19 614.09 464.75 608.46 453.32 601.62 441.88 594 430.45 586.05 419.01 578.27 407.57 571.13 396.14 565.09 384.7 560.49 373.27 557.64 361.83 556.71 350.4 557.74 338.96 560.69 327.53 565.36 316.09 571.47 304.66 578.65 293.22 586.45 281.79 594.39 270.35 601.99 258.91 608.78 247.48 614.33 236.04 618.32C226.76 620.23 222.14 611.12 226.75 602.56Q231.97 590.26 235.77 577.53 238.29 564.41 239.79 550.94 240.7 537.16 241.52 523.13 242.77 508.91 244.97 494.55 248.52 480.11 253.7 465.64 260.6 451.19 269.14 436.84 279.01 422.61 289.76 408.57 300.82 394.75 311.56 381.2 321.38 367.94 329.73 355 336.25 342.4 340.75 330.15 343.28 318.27 344.1 306.75 343.7 295.59 342.71 284.78 341.83 274.31 341.8 264.14 343.26 254.25 346.72 244.62 352.46 235.21 360.51 225.99 376.52 212.42 382.4 207.93" stroke-dasharray="0 8" transform="rotate(36.36, 400, 400)" opacity="0.66"></path><path d="M376.73 218.65C385.61 211.95 397.27 216.6 396.27 226.63Q396.15 239.2 397.82 251.87 401.66 264.59 407.85 277.33 416.35 290.06 426.88 302.74 438.93 315.33 451.85 327.81 464.89 340.12 477.25 352.25 488.21 364.14 497.14 375.79 503.63 387.15 507.49 398.21 508.8 408.94 507.88 419.33 505.3 429.37 501.79 439.06 498.21 448.39 495.42 457.37 496.66 474.17 505.78 490.07 515.28 497.56 527.19 504.84 540.9 511.96 555.58 518.95 570.29 525.86 584.09 532.74 596.09 539.64 605.58 546.61C610.59 551.7 604.05 563.69 595.26 569.3Q584.43 576.6 573.59 583.97 562.76 590.99 551.93 597.29 541.09 602.52 530.26 606.4 519.42 608.71 508.59 609.33 497.75 608.23 486.92 605.46 476.08 601.18 465.25 595.61 454.41 589.07 443.58 581.91 432.74 574.52 421.91 567.3 411.08 560.65 400.24 554.93 389.41 550.44 378.57 547.44 367.74 546.09 356.9 546.46 346.07 548.53 335.23 552.2 324.4 557.25 313.57 563.41 302.73 570.35 291.9 577.69 281.06 585.03 270.23 591.97 259.39 598.14 248.56 603.18C239.77 606.27 234.36 598.65 237.82 589.96Q241.51 577.6 244 564.92 245.52 551.96 246.39 538.76 247.03 525.38 247.89 511.85 249.41 498.23 251.99 484.57 255.92 470.9 261.38 457.29 268.39 443.76 276.82 430.37 286.38 417.16 296.67 404.15 307.18 391.39 317.39 378.89 326.76 366.68 334.86 354.78 341.33 343.2 346 331.94 348.86 321.01 350.09 310.41 350.03 300.12 349.17 290.14 348.1 280.45 347.43 271.03 347.76 261.86 349.6 252.9 353.33 244.13 359.13 235.52 371.87 222.84 376.73 218.65" stroke-dasharray="9 9" transform="rotate(40.400000000000006, 400, 400)" opacity="0.62"></path><path d="M372.41 229.37C379.59 223.14 390.36 227.6 390.51 237.03Q392.1 248.85 395.58 260.76 401.09 272.72 408.63 284.71 417.99 296.7 428.83 308.65 440.63 320.55 452.8 332.35 464.72 344.03 475.74 355.56 485.31 366.91 492.97 378.05 498.45 388.96 501.63 399.61 502.62 409.99 501.72 420.08 499.38 429.86 496.22 439.34 492.91 448.49 490.17 457.33 490.14 473.92 496.66 489.63 504.24 497.01 514.14 504.15 525.94 511.08 539.08 517.83 552.84 524.44 566.46 530.93 579.15 537.36 590.22 543.77C596.85 548.38 593.28 560 585.03 565.51Q574.86 572.33 564.7 578.88 554.53 584.83 544.36 589.91 534.2 593.87 524.03 596.53 513.86 597.75 503.69 597.47 493.53 595.72 483.36 592.56 473.19 588.17 463.03 582.73 452.86 576.53 442.69 569.84 432.52 563 422.36 556.33 412.19 550.16 402.02 544.76 391.86 540.42 381.69 537.33 371.52 535.63 361.35 535.43 351.19 536.71 341.02 539.43 330.85 543.44 320.68 548.57 310.52 554.56 300.35 561.12 290.18 567.95 280.01 574.71 269.85 581.08 259.68 586.75C251.43 590.66 245.27 584.32 247.61 575.69Q249.95 563.49 251.39 551.07 252.2 538.49 252.72 525.78 253.33 512.98 254.4 500.12 256.28 487.26 259.27 474.42 263.57 461.66 269.26 448.99 276.32 436.46 284.59 424.1 293.8 411.94 303.6 400 313.54 388.3 323.2 376.86 332.12 365.7 339.93 354.82 346.32 344.23 351.12 333.94 354.29 323.94 355.93 314.23 356.27 304.79 355.69 295.62 353.87 278.11 353.68 261.22 355.68 253.09 359.4 245.08 368.7 233.28 372.41 229.37" stroke-dasharray="6 9" transform="rotate(44.44, 400, 400)" opacity="0.58"></path><path d="M369.98 240.12C375.27 234.33 385.21 238.6 386.73 247.42Q390.11 258.49 395.24 269.63 402.12 280.83 410.59 292.06 420.39 303.29 431.13 314.51 442.36 325.69 453.57 336.8 464.24 347.82 473.9 358.72 482.12 369.48 488.59 380.08 493.14 390.48 495.72 400.69 496.44 410.66 495.55 420.4 493.45 429.88 490.61 439.09 485.42 456.56 482.99 473.17 484.55 481 488.18 488.55 494 495.84 501.93 502.89 511.75 509.72 523.09 516.33 535.44 522.76 548.22 529.04 560.82 535.18 572.59 541.22C580.24 545.52 579.08 556.51 571.41 561.59Q561.97 567.61 552.52 573.12 543.08 577.89 533.63 581.73 524.19 584.46 514.74 585.99 505.29 586.25 495.85 585.21 486.4 582.94 476.96 579.52 467.51 575.09 458.07 569.85 448.62 564 439.18 557.8 429.73 551.5 420.29 545.37 410.84 539.66 401.4 534.61 391.95 530.43 382.5 527.3 373.06 525.34 363.61 524.65 354.17 525.24 344.72 527.09 335.28 530.13 325.83 534.23 316.39 539.22 306.94 544.88 297.5 550.99 288.05 557.28 278.61 563.5 269.16 569.39C261.5 573.75 254.76 568.45 256.15 560.03Q257.42 548.22 258.12 536.3 258.54 524.3 258.97 512.26 259.74 500.21 261.15 488.18 263.46 476.2 266.87 464.31 271.5 452.53 277.36 440.89 284.4 429.41 292.46 418.12 301.28 407.03 310.55 396.16 319.92 385.53 329.01 375.14 337.46 365.01 344.95 355.14 351.22 345.53 356.11 336.17 359.55 327.07 361.58 318.22 361.82 301.32 360.16 285.06 359.34 269.67 361.41 254.68 367.42 243.74 369.98 240.12" stroke-dasharray="2 4" transform="rotate(48.48, 400, 400)" opacity="0.54"></path><path d="M369.75 250.87C373.19 245.53 382.36 249.58 385.28 257.8Q390.26 268.1 396.72 278.48 404.54 288.9 413.49 299.36 423.29 309.84 433.58 320.31 443.97 330.75 454.04 341.15 463.4 351.49 471.69 361.73 478.63 371.87 484.01 381.88 487.72 391.74 489.76 401.45 490.24 410.97 489.39 420.3 487.51 429.42 484.98 438.32 480.09 455.3 477.22 471.55 481.26 486.58 490.67 500.89 498.52 507.64 507.92 514.18 518.54 520.51 529.98 526.66 541.77 532.65 553.42 538.48C561.44 542.61 561.93 552.76 554.88 557.15Q537.51 566.48 520.15 572.65 502.78 574.78 485.41 572.57 468.05 566.32 450.68 556.95 433.31 545.77 415.95 534.4 398.58 524.44 381.21 517.34 363.84 514.09 346.48 515.17 329.11 520.42 311.74 529.09 294.37 539.94 277.01 551.42C269.96 555.88 262.9 551.39 263.58 543.37Q264.12 532.17 264.42 520.94 264.73 509.71 265.31 498.5 266.42 487.35 268.26 476.26 271.02 465.28 274.82 454.41 279.71 443.69 285.68 433.12 292.63 422.72 300.41 412.51 308.79 402.51 317.52 392.71 326.29 383.14 334.81 373.78 342.77 364.66 349.92 355.76 356.03 347.09 360.96 338.64 366.43 322.49 368.47 306.94 366.88 292.26 364.91 278.02 367.71 257.6 369.75 250.87" stroke-dasharray="1 5" transform="rotate(52.52, 400, 400)" opacity="0.51"></path><path d="M371.84 261.65C373.63 256.74 382.09 260.56 386.21 268.17Q399.78 287.31 417.03 306.64 435.96 326.05 454.11 345.41 469.11 364.59 479.23 383.46 483.76 401.89 483.24 419.77 479.34 436.99 474.57 453.47 471.69 469.15 473.12 483.98 480.41 497.96 493.83 511.11 512.29 523.47 533.53 535.12C541.3 539.16 542.65 548.3 536.25 551.83Q520.44 558.8 504.64 562.65 488.83 562.92 473.03 559.57 457.22 553.01 441.42 544.05 425.61 533.77 409.81 523.42 394 514.28 378.2 507.45 362.39 503.76 346.59 503.68 330.78 507.19 314.98 513.89 299.17 522.95 283.36 533.26C276.96 537.52 269.92 533.63 270.14 526.13Q270.55 505.37 271.94 484.82 275.8 464.62 283.13 444.91 294.2 425.8 308.44 407.38 324.5 389.7 340.6 372.8 354.83 356.69 365.65 341.35 372.2 326.74 374.57 312.78 373.78 299.4 371.64 286.49 371.07 267.8 371.84 261.65" stroke-dasharray="6 7" transform="rotate(56.56, 400, 400)" opacity="0.47"></path><path d="M376.07 272.42C376.58 267.96 384.39 271.54 389.37 278.52Q404.06 296.11 420.89 313.88 438.07 331.73 453.7 349.58 466.14 367.31 474.25 384.84 477.72 402.04 477.09 418.84 473.67 435.14 469.38 450.86 466.33 465.94 466.45 480.33 471.15 494 481.01 506.95 495.64 519.18 513.75 530.73C520.76 534.72 522.29 542.78 516.52 545.36Q502.27 549.97 488.03 551.73 473.79 550.45 459.55 546.27 445.3 539.61 431.06 531.17 416.82 521.79 402.58 512.46 388.33 504.12 374.09 497.63 359.85 493.66 345.6 492.61 331.36 494.59 317.12 499.41 302.87 506.55 288.63 515.3C282.85 519.1 276.18 515.59 276.25 508.76Q276.85 489.95 279.06 471.49 283.88 453.46 291.85 435.96 302.95 419.05 316.55 402.77 331.51 387.16 346.39 372.22 359.7 357.94 370.19 344.31 377.11 331.26 380.34 318.74 380.47 306.69 378.72 295.01 376.38 278.02 376.07 272.42" stroke-dasharray="10 3" transform="rotate(60.599999999999994, 400, 400)" opacity="0.43"></path><path d="M382.09 283.21C381.75 279.18 388.94 282.5 394.35 288.87Q409.12 304.89 424.7 321.08 439.7 337.36 452.74 353.66 462.76 369.91 469.09 386.02 471.65 401.91 470.94 417.52 467.99 432.76 464.19 447.58 461.13 461.91 460.29 475.71 462.89 488.93 469.59 501.56 480.46 513.58 494.92 524.98C500.79 528.95 501.94 535.85 496.78 537.49Q484.07 539.91 471.35 539.88 458.63 537.4 445.92 532.68 433.2 526.13 420.48 518.29 407.76 509.84 395.05 501.49 382.33 493.95 369.61 487.86 356.89 483.74 344.18 481.95 331.46 482.62 318.74 485.71 306.02 490.95 293.31 497.9C288.15 501.07 282.18 497.79 282.33 491.71Q283.62 475.05 286.83 458.79 292.54 443 300.97 427.7 311.91 412.95 324.74 398.75 338.54 385.12 352.18 372.06 364.51 359.53 374.57 347.51 381.71 335.96 385.71 324.82 386.85 314.05 385.87 303.57 382.97 288.26 382.09 283.21" stroke-dasharray="11 1" transform="rotate(64.64, 400, 400)" opacity="0.39"></path><path d="M389.35 294.01C388.6 290.41 395.18 293.46 400.56 299.21Q414.43 313.67 428.14 328.27 440.69 342.96 451.18 357.69 458.98 372.4 463.74 387.03 465.54 401.54 464.79 415.85 462.26 429.92 458.97 443.68 456.03 457.1 454.57 470.13 455.53 482.72 459.59 494.86 467.03 506.51 477.72 517.67C482.27 521.56 482.66 527.34 478.1 528.11Q466.84 528.64 455.59 527.18 444.34 523.86 433.09 518.88 421.84 512.6 410.58 505.45 399.33 497.91 388.08 490.52 376.83 483.78 365.58 478.15 354.32 474.02 343.07 471.68 331.82 471.29 320.56 472.87 309.31 476.31 298.06 481.39C293.49 483.83 288.46 480.68 288.89 475.4Q291.18 460.98 295.41 446.97 301.85 433.38 310.5 420.25 321.07 407.58 333.01 395.37 345.59 383.63 357.95 372.33 369.27 361.45 378.79 350.97 385.99 340.84 390.62 331.04 392.75 321.5 392.76 312.19 390.34 298.53 389.35 294.01" stroke-dasharray="9 11" transform="rotate(68.68, 400, 400)" opacity="0.35"></path><path d="M397.14 304.83C396.39 301.64 402.33 304.4 407.28 309.54Q419.46 322.41 430.87 335.41 440.88 348.5 448.97 361.63 454.8 374.77 458.23 387.89 459.4 400.93 458.65 413.85 456.52 426.62 453.72 439.2 451.02 451.54 449.22 463.62 449.01 475.39 450.99 486.83 455.5 497.92 462.67 508.64C465.89 512.41 465.35 517.11 461.35 517.15Q451.49 516.16 441.63 513.69 431.76 509.86 421.9 504.88 412.03 499.03 402.17 492.62 392.31 486.01 382.44 479.55 372.58 473.6 362.71 468.47 352.85 464.46 342.99 461.78 333.12 460.57 323.26 460.9 313.39 462.75 303.53 466.03C299.53 467.72 295.57 464.67 296.4 460.19Q299.77 448.02 304.89 436.2 311.82 424.75 320.43 413.68 330.42 402.97 341.34 392.64 352.65 382.66 363.73 373.02 373.97 363.69 382.85 354.66 389.94 345.89 395.01 337.36 397.73 312.87 397.14 304.83" stroke-dasharray="1 6" transform="rotate(72.72, 400, 400)" opacity="0.32"></path><path d="M404.73 315.66C404.27 312.89 409.56 315.35 413.75 319.86Q423.7 331.15 432.64 342.54 440.19 354 446.1 365.52 450.23 377.06 452.57 388.6 453.24 400.12 452.52 411.57 450.76 422.94 448.44 434.19 446.06 445.31 444.15 456.25 443.22 467 443.69 477.54 445.9 487.84 450.07 497.88C452.06 501.43 450.66 505.18 447.19 504.66Q438.64 502.6 430.09 499.5 421.54 495.5 412.99 490.75 404.43 485.46 395.88 479.84 387.33 474.14 378.78 468.59 370.23 463.41 361.68 458.84 353.12 455.06 344.57 452.22 327.47 450.4 310.36 452.03C306.89 453.03 304.04 450.05 305.26 446.37Q309.59 436.35 315.34 426.63 322.44 417.19 330.73 408.04 339.94 399.17 349.74 390.57 359.73 382.23 369.49 374.13 378.62 366.26 386.74 358.6 398.03 343.87 404.6 329.56 404.99 319.12 404.73 315.66" stroke-dasharray="4 2" transform="rotate(76.76, 400, 400)" opacity="0.28"></path><path d="M411.37 326.49C411.36 324.14 415.98 326.3 419.22 330.16Q433.22 349.63 442.57 369.35 446.76 389.21 446.39 409.05 443.11 428.74 439.29 448.13 437.51 467.09 439.95 485.48C440.96 488.72 438.91 491.62 435.94 490.75Q421.33 484.74 406.72 476.52 392.11 467.09 377.49 457.61 362.88 449.23 348.26 442.97 333.65 439.59 319.04 439.51C316.07 439.9 314.23 437.06 315.77 434.12Q326.77 418.32 341.38 403.35 358.19 389.15 375.25 375.65 390.46 362.76 402.06 350.35 410.21 332.4 411.37 326.49" stroke-dasharray="7 2" transform="rotate(80.80000000000001, 400, 400)" opacity="0.24"></path><path d="M416.45 337.34C416.9 335.39 420.8 337.22 423.06 340.45Q432.47 356.7 438.4 373.14 440.82 389.72 440.26 406.34 437.72 422.92 434.55 439.39 432.23 455.65 432.15 471.63C432.46 474.46 430.07 476.65 427.59 475.61Q415.38 469.52 403.16 462.24 390.95 454.39 378.73 446.64 366.52 439.64 354.3 433.99 342.09 430.16 329.87 428.49C327.39 428.43 326.37 425.81 328.07 423.54Q339.13 411.29 352.33 399.58 366.69 388.35 381 377.56 394.03 367.14 404.7 357.01 414.36 342.22 416.45 337.34" stroke-dasharray="5 6" transform="rotate(84.84, 400, 400)" opacity="0.20"></path><path d="M419.49 348.21C420.3 346.66 423.43 348.15 424.81 350.75Q430.34 363.76 433.62 376.91 434.76 390.17 434.13 403.49 432.27 416.83 429.84 430.16 427.59 443.43 426.26 456.59C426.18 458.95 423.79 460.54 421.8 459.52Q411.94 454.01 402.08 447.98 392.22 441.75 382.36 435.68 372.49 430.07 362.63 425.25 352.77 421.47 342.9 418.95C340.91 418.6 340.46 416.3 342.15 414.61Q352.32 405.5 363.54 396.69 375.23 388.15 386.75 379.84 397.44 371.74 406.74 363.79 416.84 352.09 419.49 348.21" stroke-dasharray="5 1" transform="rotate(88.88, 400, 400)" opacity="0.16"></path><path d="M420.24 359.08C421.19 357.94 423.54 359.07 424.23 361.02Q428.28 380.64 428.01 400.55 425.07 420.62 421.74 440.69C421.51 442.51 419.48 443.61 417.96 442.75Q402.96 433.75 387.96 424.7 372.96 416.7 357.96 410.72C356.44 410.26 356.33 408.39 357.79 407.22Q374.95 394.59 392.49 382.44 408.21 370.66 420.24 359.08 420.24 359.08 420.24 359.08" stroke-dasharray="10 3" transform="rotate(92.92, 400, 400)" opacity="0.13"></path><path d="M418.66 369.98C419.52 369.21 421.09 369.98 421.31 371.29Q422.46 384.36 421.9 397.59 420.17 410.92 417.93 424.34C417.72 425.55 416.28 426.26 415.25 425.66Q405.08 419.63 394.91 413.74 384.74 408.31 374.56 403.64C373.53 403.22 373.56 401.88 374.61 401.15Q386.49 393.16 398.23 385.33 413.91 373.8 418.66 369.98" stroke-dasharray="10 1" transform="rotate(96.96, 400, 400)" opacity="0.09"></path></g></svg>